I thought some people might want a copy, cheers from Canada.





Format                           : AVI
Format/Info                      : Audio Video Interleave
File size                        : 707 MiB
Duration                         : 1h 22mn
Overall bit rate                 : 1 194 Kbps
Writing application              : Lavf52.84.0

Video
ID                               : 0
Format                           : xvid
Codec ID                         : xvid
Duration                         : 1h 22mn
Bit rate                         : 1 052 Kbps
Width                            : 640 pixels
Height                           : 360 pixels
Display aspect ratio             : 16:9
Frame rate                       : 29.970 fps
Bits/(Pixel*Frame)               : 0.152
Stream size                      : 623 MiB (88%)

Audio
ID                               : 1
Format                           : MPEG Audio
Format version                   : Version 1
Format profile                   : Layer 3
Mode                             : Joint stereo
Mode extension                   : MS Stereo
Codec ID                         : 55
Codec ID/Hint                    : MP3
Duration                         : 1h 22mn
Bit rate mode                    : Constant
Bit rate                         : 128 Kbps
Channel(s)                       : 2 channels
Sampling rate                    : 48.0 KHz
Compression mode                 : Lossy
Stream size                      : 75.8 MiB (11%)
Alignment                        : Aligned on interleaves
Interleave, duration             : 24 ms (0.72 video frame)
Writing library                  : LAME3.98.4








Screen Shots




 
http://i.imgur.com/CZ8mE.jpg